PathFileType	4	(X/Y/Z)	s07c0301.trc
DataRate	CameraRate	NumFrames	NumMarkers	Units	OrigDataRate	OrigDataStartFrame	OrigNumFrames
200	200	6	48	mm	200	1250	2000
Frame#	Time	racr			lacr			c7			jug			rlel			rdr			llel			ldr			s2			lic			ric			lasi			rasi			rpsi			lpsi			rgt			lgt			rth1			rth2			rth3			rth4			rlfc			rmfc			rsh1			rsh2			rsh3			rsh4			rlmal			rcal			rtoe			rmt5			lth1			lth2			lth4			lth3			llfc			lmfc			lsh1			lsh2			lsh3			lsh4			llmal			lcal			ltoe			lmt5			SBIKE			LBIKE			RBIKE			
		X1	Y1	Z1	X2	Y2	Z2	X3	Y3	Z3	X4	Y4	Z4	X5	Y5	Z5	X6	Y6	Z6	X7	Y7	Z7	X8	Y8	Z8	X9	Y9	Z9	X10	Y10	Z10	X11	Y11	Z11	X12	Y12	Z12	X13	Y13	Z13	X14	Y14	Z14	X15	Y15	Z15	X16	Y16	Z16	X17	Y17	Z17	X18	Y18	Z18	X19	Y19	Z19	X20	Y20	Z20	X21	Y21	Z21	X22	Y22	Z22	X23	Y23	Z23	X24	Y24	Z24	X25	Y25	Z25	X26	Y26	Z26	X27	Y27	Z27	X28	Y28	Z28	X29	Y29	Z29	X30	Y30	Z30	X31	Y31	Z31	X32	Y32	Z32	X33	Y33	Z33	X34	Y34	Z34	X35	Y35	Z35	X36	Y36	Z36	X37	Y37	Z37	X38	Y38	Z38	X39	Y39	Z39	X40	Y40	Z40	X41	Y41	Z41	X42	Y42	Z42	X43	Y43	Z43	X44	Y44	Z44	X45	Y45	Z45	X46	Y46	Z46	X47	Y47	Z47	X48	Y48	Z48	
1250	6.2500	873.884115	1352.225803	-124.199246	832.029540	1396.366521	-460.521345	868.553120	1434.847752	-286.062090	802.753299	1296.183287	-304.345550	603.369997	1150.453841	22.656093	731.005888	918.257670	-78.908101	588.179827	1144.832061	-536.474670	722.337698	909.186545	-425.822193	268.216138	1277.252482	-216.257615	406.219990	1328.785198	-376.824587	474.187590	1254.102087	-102.553904	424.184679	1242.226099	-366.711495	470.966695	1198.609530	-122.205261	314.948760	1302.898805	-166.706335	301.300245	1327.509490	-271.368436	374.689968	1138.193849	-62.047747	331.741937	1186.429521	-419.331064	387.034068	989.977237	-67.268595	398.135048	903.323421	-75.855584	371.010777	822.418670	-69.870025	430.382042	901.212380	-93.558518	344.398203	683.475456	-99.029611	311.754666	674.569812	-195.624499	260.608584	571.779034	-59.533714	229.469951	488.382902	-74.408574	168.066505	428.951407	-60.960536	239.817330	483.308277	-112.305758	85.689724	317.527821	-56.088903	12.892661	333.465982	-75.866808	195.165736	114.654540	-136.227543	124.676723	137.839560	-55.231690	412.094793	1093.917543	-432.819047	491.465137	1056.482465	-442.332027	515.725126	1082.786968	-433.217546	542.486745	983.475222	-446.871652	648.468104	834.158115	-429.846736	652.887025	830.035376	-325.621864	538.735761	754.176987	-433.663646	424.913119	677.700540	-413.843500	390.219659	668.923504	-413.365118	464.075302	691.096404	-364.301868	271.117174	607.750359	-407.897663	192.499252	626.327647	-372.688879	389.301515	413.180226	-361.233109	305.293300	439.022724	-429.914239	-263.801670	973.675031	-237.958990	-83.596018	79.614060	-437.543228	-83.659898	79.614699	-39.850156	
1251	6.2550	874.277744	1350.904353	-126.203563	832.461136	1395.392982	-462.222624	869.475526	1433.340175	-287.824278	802.108030	1295.406192	-305.917689	602.622127	1150.667399	20.548474	731.148303	918.270687	-79.290067	587.456508	1144.707490	-536.832989	722.265683	909.579684	-425.890108	268.856900	1280.805810	-214.170978	405.769064	1331.701880	-375.447529	475.194308	1256.811114	-101.945654	423.341164	1245.095288	-365.687505	471.657320	1201.440372	-121.749152	316.194642	1305.376097	-165.561835	301.484916	1330.831263	-269.129438	376.420101	1140.331689	-60.762193	330.095697	1189.997257	-417.457816	390.918899	991.351444	-67.790557	403.608577	905.234179	-77.020180	377.856804	823.561661	-71.393736	435.706758	903.438790	-94.832294	353.346964	684.409256	-100.411106	320.432305	675.803969	-196.967919	267.036324	574.654100	-60.470453	233.802915	491.912472	-75.135315	171.159889	434.173661	-61.256849	243.969586	486.693309	-113.023673	86.439655	324.515434	-55.711137	14.809492	343.541908	-76.691071	185.230667	115.920107	-135.889189	116.111039	142.905315	-55.165108	409.149676	1096.613308	-431.237551	488.248675	1058.790630	-441.357222	512.765055	1085.059747	-432.756937	538.872425	985.561693	-446.024032	645.780087	835.406463	-429.563993	648.739048	831.115159	-324.633194	536.711447	754.036622	-433.680938	430.282010	677.006472	-413.708905	392.030728	665.723520	-414.236630	462.191842	692.616487	-362.842255	272.936703	601.183617	-407.429056	193.287407	616.526077	-372.543651	398.591690	411.752184	-361.381214	312.438962	434.165421	-430.257427	-263.763980	973.766832	-238.046595	-83.586725	79.644910	-437.546676	-83.633437	79.698873	-39.839273	
1252	6.2600	874.713995	1349.211438	-128.069986	832.929713	1393.859373	-463.598080	870.398712	1431.403785	-289.420879	801.410388	1294.236112	-307.179465	601.793066	1150.664326	18.734617	731.135088	918.197419	-79.525510	586.455986	1144.578184	-537.213919	722.204959	909.993579	-426.052123	269.346921	1284.364625	-212.235863	405.443522	1334.610156	-374.219696	476.036204	1259.710100	-101.109096	422.625167	1247.879072	-364.633741	472.191435	1204.219910	-121.422389	317.052706	1308.311478	-163.880536	301.899515	1334.419977	-267.283319	378.160578	1142.451965	-59.600969	328.578071	1193.439152	-415.570690	395.122257	992.987824	-68.353845	409.605454	907.068978	-78.540309	385.728283	824.804589	-73.160439	441.370826	906.186855	-96.805570	363.005555	685.450014	-102.054193	329.906034	677.042222	-198.499359	274.086717	577.770199	-61.695978	239.622989	496.087715	-75.536698	174.952738	439.568395	-61.931022	248.841362	490.407277	-113.859322	88.174958	331.531757	-55.661251	17.401836	353.918727	-77.472224	174.037669	116.344553	-136.908159	107.843035	148.367446	-55.084539	406.092187	1098.915806	-429.550951	484.763513	1060.407581	-440.274522	509.553645	1086.582984	-432.161148	534.687046	986.694851	-445.063786	642.402150	836.072907	-429.155045	644.797235	831.134697	-324.393423	534.022144	752.525617	-432.877650	436.382018	676.247032	-413.593655	392.682591	661.407997	-414.661412	461.047314	690.087464	-361.467852	274.004721	593.708458	-406.957254	193.408550	605.560951	-372.490943	407.422407	410.524067	-362.582521	319.150255	428.796653	-430.577614	-263.726738	973.831403	-238.135179	-83.567072	79.690859	-437.532864	-83.615364	79.769804	-39.854976	
1253	6.2650	875.055051	1347.084989	-129.880012	833.338161	1391.723633	-464.780390	871.131420	1429.137315	-290.954706	800.596166	1292.847977	-308.193454	600.944185	1150.438843	17.122324	731.120799	917.903062	-79.800643	585.140013	1144.325254	-537.603874	722.031797	910.393474	-426.109418	269.538093	1288.221902	-210.137268	405.092809	1337.410437	-372.824463	476.738601	1262.633001	-100.198228	421.812251	1250.586215	-363.502597	472.743610	1207.033485	-120.934168	318.068935	1311.299263	-162.157782	302.444135	1337.884885	-265.628605	380.055013	1144.550381	-58.478485	326.942044	1196.663393	-413.646054	399.832109	994.445619	-68.879015	416.004866	909.050014	-80.261974	394.227666	826.262636	-75.100203	447.345469	909.093934	-99.123060	373.164808	686.590649	-103.858519	339.894533	678.418305	-200.262224	281.673028	581.107555	-63.128664	245.254084	500.265889	-76.824978	179.407222	445.227281	-62.851365	254.286511	494.163084	-115.147986	90.788085	338.358607	-55.842957	20.612273	364.302127	-78.144597	164.126059	118.061942	-136.774026	100.233833	154.317472	-55.068975	403.158886	1100.913865	-428.077805	481.272036	1061.406616	-439.266820	506.437884	1087.280788	-431.564707	530.236357	986.995205	-444.057299	638.382359	836.148672	-428.643453	640.522945	830.000346	-324.325584	530.316076	750.502900	-433.331753	442.644520	675.177353	-413.484250	392.116761	655.875310	-414.570458	460.913403	686.039268	-360.320775	274.343249	585.373444	-406.553916	192.951167	593.711611	-372.356279	415.073496	408.643076	-363.130782	325.410732	422.929424	-430.871260	-263.678212	973.876256	-238.224038	-83.545912	79.694480	-437.532312	-83.545039	79.852782	-39.823442	
1254	6.2700	875.192977	1344.652238	-131.516686	833.622850	1389.162825	-465.675421	871.741042	1426.637366	-292.484306	799.657334	1291.133551	-309.093961	600.080963	1149.976090	15.865900	731.068196	917.433675	-79.834886	583.297877	1143.738138	-537.297649	721.812440	910.788039	-426.263249	270.054976	1291.537426	-208.051690	404.667298	1340.057220	-371.636353	477.365476	1265.503061	-99.248017	420.994697	1253.030074	-362.444640	473.250459	1209.774916	-120.609482	319.088306	1314.024182	-160.540752	302.981096	1341.125123	-263.816629	381.844935	1146.466645	-57.345825	325.347171	1199.747763	-411.694111	404.726405	996.037264	-69.473430	422.797897	911.297568	-82.143278	403.339489	827.755972	-77.133100	453.635542	912.173830	-101.752290	383.605822	687.960052	-105.750097	350.378844	679.947064	-202.229932	289.659173	584.516908	-64.840649	251.737518	504.653837	-78.031868	184.312709	451.023461	-64.086692	259.640484	498.168127	-117.204151	94.020139	345.048477	-56.347329	23.947161	374.665979	-78.985232	154.372108	120.802472	-136.646890	93.426615	161.163818	-55.270079	400.552899	1102.495930	-426.828862	477.969514	1061.697291	-438.345854	503.552256	1087.257560	-430.989646	525.729272	986.564072	-443.086621	633.768780	835.625106	-428.052777	635.579785	827.961958	-324.287522	525.952601	747.434437	-433.537453	448.500833	673.552757	-413.367161	390.274723	649.023895	-413.894733	461.720235	679.581004	-359.019940	274.216763	575.986276	-406.254222	192.054549	580.663963	-372.347873	422.104712	406.199084	-364.032510	331.207405	416.580330	-431.135772	-263.649344	973.883922	-238.339736	-83.519208	79.675973	-437.516468	-83.519725	79.891199	-39.814514	
1255	6.2750	875.326228	1342.016923	-132.994899	833.692196	1386.098418	-466.211633	872.318847	1423.874606	-293.774229	798.612114	1289.196465	-309.793568	599.286625	1149.119790	14.773741	729.939084	916.294081	-79.728627	581.225034	1142.832709	-536.961414	721.490999	911.308862	-426.343961	270.610012	1294.394099	-205.939855	404.107292	1342.327275	-370.613577	477.951655	1268.295934	-98.402399	420.282748	1255.319698	-361.631894	473.734132	1212.395943	-120.163483	319.939652	1316.534759	-158.960050	303.411560	1343.945478	-261.811942	383.596771	1148.126763	-56.141979	323.800145	1202.429037	-409.718952	409.908764	997.610814	-70.095929	429.860154	913.469200	-84.124614	413.076300	829.659938	-79.318498	460.071265	915.527245	-104.423528	394.197209	689.498359	-107.847109	361.212939	681.617507	-204.289839	298.216229	587.719363	-66.740235	258.148239	509.013733	-79.849523	189.529183	456.824640	-65.602574	265.619180	501.705768	-119.605679	96.878097	352.077540	-57.554013	27.297612	385.215532	-80.929720	145.148530	125.030768	-137.822208	87.797483	169.126470	-55.650081	398.232940	1103.647275	-425.686316	474.769420	1061.388059	-437.581262	500.803584	1086.457902	-430.446058	521.107426	985.265086	-442.215921	628.609601	834.493437	-427.406611	630.119840	825.059310	-324.155282	520.539480	743.544694	-433.723394	453.382395	671.128561	-413.228923	387.097900	640.752189	-412.565229	463.243819	671.456537	-357.675421	273.491634	565.801254	-405.954811	190.980870	566.557311	-371.708734	428.569630	402.736323	-365.450204	336.530235	409.769804	-431.369501	-263.604398	973.898093	-238.571330	-83.504377	79.637365	-437.514421	-83.494471	79.979745	-39.796548	
